<svg xmlns="http://www.w3.org/2000/svg" viewBox="0 0 108 80.46"><defs><style>.cls-1{fill:#fff;}</style></defs><title>Asset 89</title><g id="Layer_2" data-name="Layer 2"><g id="contenido"><path class="cls-1" d="M106.26,0H1.74A1.74,1.74,0,0,0,0,1.74v77a1.74,1.74,0,0,0,1.74,1.74H106.26A1.74,1.74,0,0,0,108,78.71v-77A1.74,1.74,0,0,0,106.26,0Zm-1.74,77H3.48V3.48h101Z"/><path class="cls-1" d="M8.71,64.84a6.92,6.92,0,0,1,6.91,6.91,1.74,1.74,0,0,0,1.74,1.74H76.71a1.74,1.74,0,1,0,0-3.48H19a10.42,10.42,0,0,0-8.5-8.5V19a10.42,10.42,0,0,0,8.5-8.5H89a10.42,10.42,0,0,0,8.5,8.5V61.5A10.42,10.42,0,0,0,89,70H83.67a1.74,1.74,0,1,0,0,3.48h7a1.74,1.74,0,0,0,1.74-1.74,6.92,6.92,0,0,1,6.91-6.91A1.74,1.74,0,0,0,101,63.1V17.36a1.74,1.74,0,0,0-1.74-1.74,6.92,6.92,0,0,1-6.91-6.91A1.74,1.74,0,0,0,90.64,7H17.36a1.74,1.74,0,0,0-1.74,1.74,6.92,6.92,0,0,1-6.91,6.91A1.74,1.74,0,0,0,7,17.36V63.1A1.74,1.74,0,0,0,8.71,64.84Z"/><path class="cls-1" d="M41.95,30.88a1.74,1.74,0,0,0,2.8,0l3.92-5.31,3.92,5.31a1.74,1.74,0,0,0,2.8,0l3.92-5.31,3.93,5.31a1.74,1.74,0,0,0,2.8,0l5.33-7.2a1.74,1.74,0,0,0-2.8-2.07l-3.93,5.31-3.93-5.31a1.74,1.74,0,0,0-2.8,0L54,26.92l-3.92-5.31a1.74,1.74,0,0,0-2.8,0l-3.92,5.31-3.92-5.31a1.74,1.74,0,0,0-2.8,2.07l5.32,7.2Z"/><path class="cls-1" d="M87.12,46.1a1.74,1.74,0,0,0-1.74-1.74H22.62a1.74,1.74,0,1,0,0,3.48H85.38A1.74,1.74,0,0,0,87.12,46.1Z"/><path class="cls-1" d="M65,56.07H43a1.74,1.74,0,0,0,0,3.48H65a1.74,1.74,0,0,0,0-3.48Z"/><path class="cls-1" d="M22.62,40.88H85.38a1.74,1.74,0,1,0,0-3.48H22.62a1.74,1.74,0,1,0,0,3.48Z"/></g></g></svg>